<svg width="24" height="24" viewBox="0 0 24 24" fill="none" xmlns="http://www.w3.org/2000/svg">
<path d="M0 12C0 5.37258 5.37258 0 12 0C18.6274 0 24 5.37258 24 12C24 18.6274 18.6274 24 12 24C5.37258 24 0 18.6274 0 12Z" fill="#F8F8FB"/>
<path d="M16 16.5V15.5C16 14.9696 15.7893 14.4609 15.4142 14.0858C15.0391 13.7107 14.5304 13.5 14 13.5H10C9.46957 13.5 8.96086 13.7107 8.58579 14.0858C8.21071 14.4609 8 14.9696 8 15.5V16.5" stroke="#999BBF" stroke-width="1.5" stroke-linecap="round" stroke-linejoin="round"/>
<path d="M12 11.5C13.1046 11.5 14 10.6046 14 9.5C14 8.39543 13.1046 7.5 12 7.5C10.8954 7.5 10 8.39543 10 9.5C10 10.6046 10.8954 11.5 12 11.5Z" stroke="#999BBF" stroke-width="1.5" stroke-linecap="round" stroke-linejoin="round"/>
</svg>
