<svg width="45" height="44" viewBox="0 0 45 44" fill="none" xmlns="http://www.w3.org/2000/svg">
<g clip-path="url(#clip0_484_6463)">
<path d="M43.9993 32.8776C43.9993 33.1185 43.9919 33.641 43.9774 34.0446C43.942 35.0321 43.8637 36.3065 43.7454 36.887C43.5674 37.7596 43.2988 38.5831 42.9486 39.2686C42.5343 40.0795 42.0057 40.8058 41.3777 41.4327C40.751 42.0583 40.0254 42.5847 39.2157 42.9974C38.5267 43.3486 37.698 43.6173 36.8204 43.7944C36.2456 43.9105 34.9808 43.9873 33.9996 44.0222C33.5956 44.0366 33.073 44.0439 32.833 44.0439L11.1668 44.0404C10.9259 44.0404 10.4035 44.033 9.99985 44.0185C9.01229 43.9831 7.73799 43.9048 7.15735 43.7865C6.28482 43.6085 5.46123 43.34 4.77578 42.9898C3.96487 42.5754 3.23856 42.0469 2.61168 41.4188C1.98605 40.7922 1.45959 40.0666 1.04696 39.2569C0.69573 38.5678 0.427 37.7391 0.249838 36.8617C0.133822 36.2868 0.0570357 35.0221 0.0221018 34.0408C0.00775007 33.6368 0.000488281 33.1143 0.000488281 32.8743L0.00392582 11.2082C0.00392582 10.9673 0.0112735 10.4449 0.0257542 10.0412C0.0612037 9.0537 0.139451 7.77942 0.257831 7.19882C0.435766 6.3263 0.704324 5.50272 1.05457 4.81724C1.46892 4.00637 1.99748 3.28003 2.62548 2.65316C3.25214 2.02758 3.9778 1.50108 4.78747 1.08841C5.47657 0.737269 6.30531 0.468543 7.18279 0.291383C7.75759 0.175324 9.02238 0.0985391 10.0036 0.0636484C10.4076 0.0492539 10.9303 0.0419922 11.1702 0.0419922L32.8364 0.0454727C33.0774 0.0454727 33.5998 0.0528203 34.0034 0.0673008C34.991 0.10275 36.2652 0.180996 36.8459 0.299375C37.7184 0.477309 38.542 0.745863 39.2275 1.0961C40.0384 1.51045 40.7647 2.03901 41.3915 2.667C42.0171 3.29365 42.5436 4.01927 42.9563 4.82897C43.3075 5.51806 43.5762 6.34675 43.7534 7.22422C43.8694 7.79905 43.9461 9.0638 43.9811 10.0451C43.9955 10.4491 44.0028 10.9717 44.0028 11.2117L43.9993 32.8776Z" fill="url(#paint0_linear_484_6463)"/>
<path d="M33.6591 10.4521C30.6801 7.47063 26.7183 5.82785 22.4973 5.82617C13.8003 5.82617 6.72196 12.9018 6.71848 21.5988C6.71737 24.3788 7.44393 27.0925 8.8247 29.4845L6.58618 37.6584L14.9508 35.465C17.2554 36.7216 19.8502 37.3838 22.491 37.3849H22.4975C31.1937 37.3849 38.2727 30.3085 38.2762 21.6113C38.2779 17.3967 36.6382 13.4336 33.6591 10.4521ZM22.4975 34.7209H22.4922C20.1389 34.72 17.8308 34.088 15.8172 32.8935L15.3382 32.6094L10.3746 33.911L11.6995 29.0731L11.3876 28.5771C10.0748 26.4897 9.38145 24.077 9.38248 21.5998C9.38531 14.3712 15.2686 8.49023 22.5026 8.49023C26.0055 8.49157 29.2983 9.85711 31.7744 12.3352C34.2505 14.8132 35.6134 18.1072 35.6121 21.6104C35.6092 28.8396 29.726 34.7209 22.4975 34.7209ZM29.6912 24.9019C29.2969 24.7046 27.3586 23.7511 26.9972 23.6196C26.6358 23.488 26.373 23.4223 26.1101 23.8169C25.8473 24.2114 25.0917 25.0992 24.8617 25.3622C24.6317 25.6253 24.4017 25.6582 24.0075 25.4609C23.6132 25.2636 22.3429 24.8474 20.837 23.5047C19.665 22.4597 18.8737 21.1689 18.6437 20.7743C18.4138 20.3797 18.6193 20.1665 18.8166 19.9699C18.994 19.7934 19.2109 19.5096 19.408 19.2795C19.6051 19.0494 19.6709 18.8849 19.8023 18.6219C19.9337 18.3588 19.868 18.1286 19.7694 17.9314C19.6709 17.7341 18.8823 15.7941 18.5538 15.005C18.2338 14.2365 17.9087 14.3405 17.6667 14.3284C17.437 14.317 17.1739 14.3146 16.9111 14.3146C16.6483 14.3146 16.2211 14.4132 15.8598 14.8078C15.4984 15.2023 14.4799 16.1559 14.4799 18.0958C14.4799 20.0357 15.8926 21.9099 16.0897 22.1729C16.2869 22.4359 18.8698 26.4169 22.8247 28.1241C23.7654 28.5302 24.4998 28.7727 25.0724 28.9544C26.0168 29.2542 26.8763 29.212 27.5557 29.1105C28.3131 28.9974 29.8882 28.1571 30.2168 27.2364C30.5454 26.3157 30.5454 25.5267 30.4468 25.3623C30.3482 25.1979 30.0854 25.0992 29.6912 24.9019Z" fill="white"/>
</g>
<defs>
<linearGradient id="paint0_linear_484_6463" x1="22.0016" y1="0.0419922" x2="22.0016" y2="44.0439" gradientUnits="userSpaceOnUse">
<stop stop-color="#61FD7D"/>
<stop offset="1" stop-color="#2BB826"/>
</linearGradient>
<clipPath id="clip0_484_6463">
<rect width="44" height="44" fill="white" transform="translate(0.00146484)"/>
</clipPath>
</defs>
</svg>
