<svg width="45" height="44" viewBox="0 0 45 44" fill="none" xmlns="http://www.w3.org/2000/svg">
<g clip-path="url(#clip0_484_6456)">
<path d="M40.8867 43.2411C42.1886 43.2411 43.2268 42.1861 43.2268 40.9002V3.09876C43.2268 1.7964 42.1721 0.757812 40.8867 0.757812H3.09948C1.81408 0.757812 0.759399 1.81289 0.759399 3.09876V40.9002C0.759399 42.2026 1.81408 43.2411 3.09948 43.2411H40.8867Z" fill="#157DC3"/>
<path d="M30.0599 43.2423V26.7897H35.5805L36.4045 20.3768H30.0599V16.2884C30.0599 14.4255 30.5708 13.1726 33.2404 13.1726H36.6352V7.41916C36.0419 7.33673 34.0314 7.17188 31.6913 7.17188C26.797 7.17188 23.4516 10.1558 23.4516 15.6455V20.3768H17.9146V26.7897H23.4516V43.2423H30.0599Z" fill="white"/>
</g>
<defs>
<clipPath id="clip0_484_6456">
<rect width="44" height="44" fill="white" transform="translate(0.00134277)"/>
</clipPath>
</defs>
</svg>
