<svg width="45" height="44" viewBox="0 0 45 44" fill="none" xmlns="http://www.w3.org/2000/svg">
<g clip-path="url(#clip0_484_6451)">
<path d="M22.0013 44C34.1516 44 44.0013 34.1503 44.0013 22C44.0013 9.84974 34.1516 0 22.0013 0C9.85108 0 0.00134277 9.84974 0.00134277 22C0.00134277 34.1503 9.85108 44 22.0013 44Z" fill="url(#paint0_linear_484_6451)"/>
<path d="M17.968 32.0837C17.2552 32.0837 17.3764 31.8145 17.1305 31.1358L15.0347 24.2383L31.168 14.667" fill="#C8DAEA"/>
<path d="M17.968 32.0833C18.518 32.0833 18.7609 31.8318 19.068 31.5333L22.0014 28.681L18.3424 26.4746" fill="#A9C9DD"/>
<path d="M18.342 26.4756L27.208 33.0259C28.2198 33.5841 28.9498 33.295 29.2019 32.0867L32.8108 15.0801C33.1802 13.5988 32.2461 12.9267 31.2782 13.3661L10.0867 21.5375C8.64016 22.1177 8.64877 22.9248 9.82302 23.2843L15.2612 24.9818L27.8513 17.0389C28.4457 16.6784 28.9913 16.872 28.5436 17.2695" fill="url(#paint1_linear_484_6451)"/>
</g>
<defs>
<linearGradient id="paint0_linear_484_6451" x1="29.3493" y1="7.348" x2="18.3493" y2="33" gradientUnits="userSpaceOnUse">
<stop stop-color="#37AEE2"/>
<stop offset="1" stop-color="#1E96C8"/>
</linearGradient>
<linearGradient id="paint1_linear_484_6451" x1="24.7593" y1="22.0022" x2="28.1927" y2="29.8248" gradientUnits="userSpaceOnUse">
<stop stop-color="#EFF7FC"/>
<stop offset="1" stop-color="white"/>
</linearGradient>
<clipPath id="clip0_484_6451">
<rect width="44" height="44" fill="white" transform="translate(0.00134277)"/>
</clipPath>
</defs>
</svg>
