<svg width="674" height="419" viewBox="0 0 674 419" fill="none" xmlns="http://www.w3.org/2000/svg">
<path d="M674 142.772L221.49 405.915L0 279.366L452.51 16.2231L674 142.772Z" fill="#D5D8E1"/>
<path d="M452.511 29.2598V36.4592V36.4349L30.2701 281.02L24.0703 277.42L452.511 29.2598Z" fill="#AEB1B5"/>
<path d="M452.508 36.4592V96.3162L83.075 311.106L30.2676 281.02L452.508 36.4348V36.4592Z" fill="#19A8F7"/>
<path d="M640.448 145.836L452.51 36.4592V29.2598L646.623 142.261L640.448 145.836Z" fill="#BCBFC4"/>
<path d="M588.832 175.655L452.51 96.3161V36.459L640.448 145.836L588.832 175.655Z" fill="#2EBFFF"/>
<path d="M452.511 96.3165L588.833 175.656L220.154 389.278L83.0781 311.106L452.511 96.3165Z" fill="#1397E8"/>
<path d="M264.452 216.104L262.143 211.191L502.11 72.6023L504.493 77.4424L264.452 216.104Z" fill="#FDD110"/>
<path d="M306.413 186.941C306.429 187.603 306.617 188.249 306.958 188.816C307.299 189.383 307.781 189.852 308.358 190.176C309.403 190.589 310.205 189.811 310.181 188.449C310.164 187.784 309.977 187.135 309.636 186.564C309.295 185.993 308.813 185.52 308.236 185.19C307.191 184.776 306.388 185.555 306.413 186.941Z" fill="#FE733E"/>
<path d="M293.627 193.63C294.207 193.95 294.692 194.418 295.034 194.986C295.375 195.554 295.561 196.202 295.572 196.865C295.604 197.165 295.566 197.468 295.461 197.751C295.355 198.034 295.185 198.288 294.964 198.494L309.552 190.152L307.121 185.287L292.533 193.678C292.699 193.585 292.884 193.532 293.074 193.524C293.264 193.515 293.454 193.552 293.627 193.63Z" fill="#FE733E"/>
<path d="M335.735 170.037C335.751 170.699 335.939 171.345 336.28 171.912C336.621 172.479 337.103 172.947 337.68 173.272C338.725 173.685 339.528 172.907 339.503 171.545C339.491 170.879 339.306 170.228 338.964 169.656C338.623 169.085 338.138 168.612 337.558 168.286C336.513 167.921 335.711 168.651 335.735 170.037Z" fill="#FE733E"/>
<path d="M322.948 176.726C323.527 177.046 324.013 177.514 324.354 178.082C324.695 178.65 324.881 179.298 324.893 179.96C324.925 180.261 324.886 180.564 324.781 180.847C324.675 181.13 324.506 181.384 324.285 181.59L338.872 173.248L336.441 168.383L321.854 176.774C322.019 176.681 322.205 176.628 322.395 176.62C322.585 176.611 322.774 176.647 322.948 176.726Z" fill="#FE733E"/>
<path d="M364.692 153.327C364.706 153.99 364.893 154.637 365.234 155.204C365.575 155.772 366.059 156.24 366.637 156.562C367.682 156.976 368.485 156.222 368.46 154.835C368.449 154.173 368.263 153.525 367.922 152.957C367.58 152.389 367.095 151.921 366.515 151.601C365.47 151.139 364.668 151.917 364.692 153.327Z" fill="#FE733E"/>
<path d="M351.901 159.992C352.486 160.307 352.975 160.773 353.317 161.343C353.659 161.912 353.842 162.563 353.846 163.227C353.88 163.524 353.842 163.824 353.737 164.103C353.631 164.383 353.46 164.633 353.238 164.832L367.826 156.514L365.394 151.65L350.807 160.041C350.97 159.942 351.156 159.885 351.347 159.877C351.539 159.868 351.729 159.908 351.901 159.992Z" fill="#FE733E"/>
<path d="M394.016 136.302C394.03 136.964 394.217 137.611 394.558 138.179C394.899 138.746 395.383 139.214 395.961 139.537C397.007 139.975 397.809 139.196 397.785 137.81C397.773 137.147 397.588 136.499 397.246 135.931C396.905 135.364 396.419 134.896 395.84 134.575C394.794 134.235 393.992 135.013 394.016 136.302Z" fill="#FE733E"/>
<path d="M381.225 143.088C381.81 143.403 382.299 143.869 382.641 144.438C382.984 145.008 383.166 145.659 383.17 146.323C383.204 146.619 383.166 146.92 383.061 147.199C382.955 147.478 382.784 147.728 382.562 147.928L397.15 139.61L394.719 134.745L380.131 143.137C380.295 143.037 380.481 142.981 380.672 142.973C380.863 142.964 381.053 143.004 381.225 143.088Z" fill="#FE733E"/>
<path d="M423.917 119.033C423.931 119.698 424.118 120.348 424.459 120.92C424.8 121.491 425.283 121.964 425.862 122.292C426.907 122.706 427.709 121.928 427.685 120.541C427.674 119.879 427.488 119.231 427.146 118.663C426.805 118.095 426.32 117.627 425.74 117.306C424.695 116.844 423.892 117.671 423.917 119.033Z" fill="#FE733E"/>
<path d="M411.128 125.746C411.711 126.063 412.199 126.53 412.541 127.098C412.883 127.667 413.066 128.317 413.073 128.981C413.107 129.278 413.069 129.578 412.964 129.857C412.858 130.137 412.687 130.386 412.465 130.586L426.931 122.268L424.5 117.404L409.912 125.795C410.09 125.673 410.298 125.604 410.513 125.595C410.728 125.587 410.941 125.639 411.128 125.746Z" fill="#FE733E"/>
<path d="M453.239 102.251C453.255 102.912 453.443 103.559 453.784 104.126C454.125 104.693 454.607 105.161 455.184 105.486C456.229 105.899 457.032 105.121 457.007 103.759C456.998 103.093 456.813 102.441 456.472 101.868C456.13 101.296 455.644 100.824 455.062 100.5C454.017 99.9889 453.215 100.767 453.239 102.251Z" fill="#FE733E"/>
<path d="M440.452 108.842C441.035 109.159 441.523 109.626 441.865 110.195C442.207 110.764 442.391 111.414 442.397 112.077C442.431 112.374 442.393 112.674 442.288 112.954C442.182 113.233 442.011 113.483 441.789 113.683L456.255 105.364L453.824 100.5L439.236 108.891C439.417 108.777 439.624 108.712 439.838 108.704C440.051 108.695 440.263 108.743 440.452 108.842Z" fill="#FE733E"/>
<path d="M482.223 85.3955C482.229 86.0562 482.41 86.7035 482.748 87.2717C483.085 87.8398 483.567 88.3085 484.144 88.6303C485.189 89.0438 485.991 88.2655 485.967 86.9034C485.956 86.2408 485.77 85.5929 485.428 85.0249C485.087 84.457 484.602 83.9891 484.022 83.6685C482.977 83.2551 482.174 84.0091 482.223 85.3955Z" fill="#FE733E"/>
<path d="M469.407 92.0842C469.99 92.4068 470.478 92.8784 470.819 93.451C471.161 94.0236 471.345 94.6766 471.352 95.3434C471.386 95.6401 471.349 95.9405 471.243 96.2198C471.137 96.499 470.966 96.749 470.744 96.9487L485.21 88.6062L482.779 83.7417L468.191 92.1328C468.369 92.011 468.577 91.9419 468.792 91.9332C469.007 91.9246 469.22 91.977 469.407 92.0842Z" fill="#FE733E"/>
<path d="M511.541 68.4915C511.548 69.1523 511.729 69.7996 512.066 70.3677C512.403 70.9359 512.885 71.4047 513.462 71.7264C514.507 72.1399 515.31 71.3859 515.285 69.9995C515.274 69.3369 515.088 68.6889 514.747 68.121C514.405 67.5531 513.92 67.0853 513.34 66.7647C512.295 66.3512 511.493 67.1295 511.541 68.4915Z" fill="#FE733E"/>
<path d="M498.733 75.2045C499.318 75.5191 499.807 75.9856 500.15 76.5548C500.492 77.1241 500.674 77.775 500.678 78.4393C500.712 78.736 500.675 79.0365 500.569 79.3157C500.463 79.595 500.292 79.8448 500.07 80.0446L514.537 71.7264L512.105 66.8619L497.518 75.2531C497.695 75.1313 497.903 75.0621 498.118 75.0535C498.333 75.0449 498.547 75.0972 498.733 75.2045Z" fill="#FE733E"/>
<path d="M96.1557 313.271L269.02 213.428L266.589 208.563L92.2656 309.282L96.1557 313.271Z" fill="#FDD110"/>
<path d="M100.121 306.023C100.128 306.684 100.309 307.331 100.646 307.899C100.983 308.467 101.465 308.936 102.042 309.258C103.087 309.671 103.89 308.917 103.865 307.531C103.854 306.868 103.668 306.22 103.327 305.653C102.985 305.085 102.5 304.617 101.92 304.296C100.899 303.883 100.073 304.661 100.121 306.023Z" fill="#FE733E"/>
<path d="M91.5381 315.873L103.16 309.233L100.728 304.369L86.1406 312.809L91.5381 315.873Z" fill="#FE733E"/>
<path d="M129.223 289.24C129.228 289.908 129.41 290.562 129.752 291.135C130.094 291.708 130.583 292.179 131.168 292.5C132.189 292.913 133.016 292.135 132.967 290.773C132.963 290.108 132.783 289.457 132.445 288.885C132.108 288.312 131.625 287.839 131.047 287.514C130.074 287.1 129.199 287.878 129.223 289.24Z" fill="#FE733E"/>
<path d="M116.432 295.953C117.009 296.278 117.491 296.746 117.832 297.314C118.173 297.881 118.361 298.527 118.377 299.188C118.407 299.485 118.368 299.784 118.262 300.063C118.157 300.341 117.988 300.591 117.769 300.794L132.357 292.475L129.926 287.611L115.338 296.002C115.503 295.907 115.689 295.853 115.879 295.844C116.069 295.836 116.259 295.873 116.432 295.953Z" fill="#FE733E"/>
<path d="M158.542 272.361C158.548 273.025 158.732 273.675 159.074 274.244C159.416 274.812 159.904 275.279 160.487 275.596C161.508 276.009 162.334 275.231 162.286 273.869C162.281 273.205 162.101 272.553 161.764 271.981C161.426 271.409 160.944 270.936 160.365 270.61C159.247 270.196 158.517 270.975 158.542 272.361Z" fill="#FE733E"/>
<path d="M145.756 279.05C146.333 279.374 146.815 279.843 147.156 280.41C147.497 280.977 147.685 281.623 147.701 282.284C147.731 282.581 147.692 282.88 147.586 283.159C147.481 283.437 147.312 283.688 147.093 283.89L161.681 275.571L159.25 270.707L144.662 279.098C144.829 279.009 145.014 278.958 145.204 278.949C145.393 278.941 145.582 278.975 145.756 279.05Z" fill="#FE733E"/>
<path d="M188.424 255.019C188.435 255.682 188.621 256.33 188.962 256.898C189.304 257.465 189.789 257.933 190.369 258.254C191.414 258.667 192.217 257.889 192.168 256.527C192.164 255.866 191.984 255.217 191.646 254.649C191.309 254.08 190.826 253.612 190.247 253.292C189.226 252.854 188.424 253.633 188.424 255.019Z" fill="#FE733E"/>
<path d="M175.662 261.708C176.244 262.032 176.73 262.505 177.072 263.077C177.413 263.649 177.598 264.301 177.607 264.967C177.639 265.264 177.601 265.563 177.495 265.842C177.39 266.121 177.22 266.371 177 266.572L191.587 258.23L189.156 253.365L174.568 261.781C174.734 261.687 174.918 261.632 175.107 261.62C175.296 261.607 175.486 261.637 175.662 261.708Z" fill="#FE733E"/>
<path d="M217.77 238.115C217.781 238.778 217.967 239.426 218.309 239.994C218.65 240.562 219.135 241.029 219.715 241.35C220.761 241.764 221.563 240.985 221.514 239.623C221.508 238.962 221.327 238.315 220.989 237.747C220.652 237.179 220.17 236.71 219.594 236.388C218.548 236.023 217.746 236.729 217.77 238.115Z" fill="#FE733E"/>
<path d="M204.979 244.804C205.556 245.134 206.038 245.607 206.379 246.178C206.719 246.749 206.907 247.398 206.924 248.063C206.954 248.359 206.915 248.659 206.809 248.937C206.704 249.216 206.535 249.466 206.316 249.668L220.904 241.326L218.472 236.461L203.885 244.877C204.048 244.778 204.233 244.72 204.423 244.707C204.613 244.694 204.804 244.727 204.979 244.804Z" fill="#FE733E"/>
<path d="M246.773 221.43C246.785 222.096 246.971 222.747 247.312 223.319C247.654 223.89 248.138 224.363 248.718 224.689C249.764 225.103 250.566 224.325 250.518 222.938C250.511 222.277 250.33 221.63 249.993 221.062C249.655 220.494 249.174 220.025 248.597 219.703C247.503 219.217 246.773 219.995 246.773 221.43Z" fill="#FE733E"/>
<path d="M233.936 228.07C234.516 228.391 235.001 228.859 235.342 229.427C235.684 229.995 235.87 230.642 235.881 231.305C235.915 231.602 235.877 231.902 235.772 232.181C235.666 232.461 235.495 232.711 235.273 232.91L249.861 224.592L247.429 219.728L232.842 228.119C233.007 228.024 233.193 227.97 233.383 227.961C233.573 227.953 233.763 227.99 233.936 228.07Z" fill="#FE733E"/>
<path d="M275.951 204.405C275.961 205.071 276.146 205.723 276.487 206.295C276.828 206.867 277.314 207.339 277.896 207.664C278.942 208.077 279.744 207.299 279.695 205.913C279.689 205.252 279.508 204.604 279.17 204.036C278.833 203.468 278.352 203 277.775 202.678C276.826 202.313 275.951 203.091 275.951 204.405Z" fill="#FE733E"/>
<path d="M263.257 211.166C263.836 211.487 264.322 211.954 264.663 212.522C265.005 213.09 265.19 213.738 265.202 214.401C265.236 214.698 265.198 214.998 265.092 215.277C264.987 215.557 264.816 215.806 264.594 216.006L279.06 207.688L276.629 202.823L262.041 211.215C262.221 211.098 262.428 211.032 262.642 211.023C262.856 211.015 263.068 211.064 263.257 211.166Z" fill="#FE733E"/>
<path d="M334.717 256.187L332.383 251.298L572.35 112.685L574.757 117.55L334.717 256.187Z" fill="#FDD110"/>
<path d="M376.68 227.024C376.684 227.686 376.864 228.334 377.201 228.902C377.539 229.471 378.022 229.939 378.601 230.259C379.646 230.697 380.448 229.919 380.424 228.532C380.413 227.87 380.227 227.222 379.885 226.654C379.544 226.086 379.059 225.618 378.479 225.297C377.458 224.884 376.631 225.662 376.68 227.024Z" fill="#FE733E"/>
<path d="M363.866 233.737C364.451 234.052 364.94 234.518 365.282 235.088C365.625 235.657 365.807 236.308 365.811 236.972C365.845 237.269 365.808 237.569 365.702 237.848C365.596 238.128 365.425 238.378 365.203 238.577L379.669 230.259L377.238 225.395L362.65 233.786C362.828 233.664 363.036 233.595 363.251 233.586C363.466 233.578 363.679 233.63 363.866 233.737Z" fill="#FE733E"/>
<path d="M405.996 210.12C406.003 210.784 406.184 211.434 406.521 212.006C406.859 212.578 407.34 213.052 407.917 213.379C408.962 213.793 409.765 213.015 409.74 211.628C409.729 210.966 409.543 210.318 409.202 209.75C408.86 209.182 408.375 208.714 407.795 208.393C406.774 207.98 405.948 208.758 405.996 210.12Z" fill="#FE733E"/>
<path d="M393.188 216.833C393.771 217.15 394.259 217.617 394.601 218.185C394.943 218.754 395.127 219.404 395.133 220.068C395.167 220.365 395.13 220.665 395.024 220.944C394.918 221.224 394.747 221.473 394.526 221.673L408.992 213.355L406.56 208.49L391.973 216.882C392.15 216.76 392.358 216.691 392.573 216.682C392.789 216.673 393.002 216.726 393.188 216.833Z" fill="#FE733E"/>
<path d="M434.953 193.387C434.96 194.047 435.141 194.695 435.478 195.263C435.815 195.831 436.297 196.3 436.874 196.622C437.919 197.035 438.722 196.257 438.697 194.895C438.69 194.228 438.507 193.575 438.165 193.002C437.823 192.43 437.336 191.958 436.752 191.636C435.731 191.222 434.905 192 434.953 193.387Z" fill="#FE733E"/>
<path d="M422.145 200.075C422.728 200.392 423.216 200.859 423.558 201.428C423.9 201.996 424.084 202.646 424.09 203.31C424.122 203.61 424.084 203.914 423.979 204.197C423.873 204.479 423.703 204.734 423.483 204.94L437.949 196.597L435.517 191.733L420.93 200.124C421.11 200.01 421.318 199.945 421.531 199.936C421.744 199.928 421.956 199.976 422.145 200.075Z" fill="#FE733E"/>
<path d="M464.277 176.483C464.284 177.143 464.465 177.791 464.802 178.359C465.14 178.927 465.621 179.396 466.198 179.717C467.244 180.131 468.046 179.353 468.022 177.991C468.018 177.326 467.835 176.675 467.493 176.106C467.151 175.537 466.661 175.07 466.077 174.756C465.055 174.318 464.229 175.218 464.277 176.483Z" fill="#FE733E"/>
<path d="M451.464 183.171C452.049 183.492 452.537 183.963 452.879 184.536C453.221 185.109 453.404 185.763 453.409 186.43C453.441 186.727 453.402 187.027 453.297 187.306C453.191 187.584 453.021 187.835 452.801 188.035L467.267 179.693L464.836 174.828L450.248 183.244C450.426 183.126 450.633 183.057 450.846 183.044C451.06 183.031 451.273 183.075 451.464 183.171Z" fill="#FE733E"/>
<path d="M494.184 159.141C494.19 159.805 494.374 160.454 494.716 161.023C495.058 161.592 495.546 162.059 496.129 162.376C497.15 162.789 497.977 162.035 497.928 160.649C497.922 159.985 497.738 159.335 497.396 158.766C497.054 158.197 496.566 157.731 495.983 157.414C494.962 157 494.135 157.779 494.184 159.141Z" fill="#FE733E"/>
<path d="M481.392 165.854C481.97 166.173 482.453 166.642 482.791 167.21C483.129 167.779 483.309 168.427 483.313 169.088C483.346 169.385 483.309 169.686 483.203 169.965C483.098 170.244 482.927 170.494 482.705 170.694L497.292 162.351L494.861 157.487L480.273 165.878C480.444 165.783 480.635 165.731 480.83 165.726C481.025 165.722 481.218 165.766 481.392 165.854Z" fill="#FE733E"/>
<path d="M523.5 142.237C523.504 142.901 523.686 143.552 524.029 144.121C524.371 144.69 524.86 145.157 525.445 145.471C526.466 145.909 527.293 145.131 527.244 143.745C527.238 143.081 527.054 142.431 526.712 141.862C526.37 141.293 525.882 140.826 525.299 140.51C524.278 140.096 523.451 140.875 523.5 142.237Z" fill="#FE733E"/>
<path d="M510.712 148.95C511.291 149.27 511.774 149.738 512.111 150.306C512.449 150.875 512.629 151.523 512.633 152.185C512.667 152.481 512.629 152.782 512.524 153.061C512.418 153.34 512.247 153.59 512.025 153.79L526.613 145.472L524.181 140.607L509.594 148.998C509.762 148.899 509.952 148.843 510.147 148.835C510.342 148.826 510.536 148.866 510.712 148.95Z" fill="#FE733E"/>
<path d="M552.459 125.503C552.465 126.167 552.649 126.817 552.991 127.385C553.333 127.954 553.821 128.421 554.404 128.738C555.425 129.151 556.252 128.373 556.203 127.011C556.199 126.344 556.016 125.69 555.674 125.117C555.332 124.544 554.843 124.072 554.258 123.752C553.237 123.338 552.41 124.141 552.459 125.503Z" fill="#FE733E"/>
<path d="M539.671 132.192C540.248 132.513 540.73 132.982 541.067 133.55C541.404 134.118 541.585 134.766 541.592 135.427C541.626 135.723 541.588 136.024 541.483 136.303C541.377 136.582 541.206 136.832 540.984 137.032L555.572 128.714L553.14 123.849L538.553 132.24C538.723 132.147 538.912 132.094 539.106 132.085C539.3 132.077 539.494 132.113 539.671 132.192Z" fill="#FE733E"/>
<path d="M581.779 108.599C581.786 109.263 581.969 109.913 582.311 110.482C582.653 111.05 583.141 111.517 583.724 111.834C584.746 112.247 585.572 111.469 585.524 110.107C585.516 109.44 585.333 108.787 584.991 108.215C584.649 107.642 584.162 107.171 583.579 106.848C582.557 106.434 581.731 107.115 581.779 108.599Z" fill="#FE733E"/>
<path d="M568.993 115.287C569.57 115.609 570.052 116.078 570.389 116.646C570.727 117.214 570.908 117.861 570.914 118.522C570.946 118.822 570.908 119.126 570.802 119.409C570.697 119.692 570.527 119.946 570.306 120.152L584.894 111.809L582.463 106.945L567.875 115.336C568.045 115.243 568.235 115.19 568.429 115.181C568.622 115.173 568.816 115.209 568.993 115.287Z" fill="#FE733E"/>
<path d="M166.398 353.354L339.165 253.511L336.733 248.647L162.508 349.365C163.796 350.727 165.109 352.041 166.398 353.354Z" fill="#FDD110"/>
<path d="M170.358 346.13C170.364 346.794 170.548 347.444 170.89 348.013C171.232 348.582 171.719 349.049 172.303 349.365C173.324 349.779 174.15 349 174.102 347.638C174.095 346.972 173.911 346.319 173.569 345.746C173.227 345.173 172.74 344.702 172.157 344.379C171.136 343.966 170.309 344.744 170.358 346.13Z" fill="#FE733E"/>
<path d="M161.677 355.981L173.298 349.316L170.867 344.452L156.279 352.916L161.677 355.981Z" fill="#FE733E"/>
<path d="M199.46 329.348C199.471 330.011 199.657 330.659 199.998 331.227C200.34 331.795 200.825 332.262 201.405 332.583C202.45 332.996 203.252 332.242 203.228 330.856C203.212 330.194 203.024 329.549 202.683 328.981C202.342 328.414 201.86 327.946 201.283 327.621C200.238 327.208 199.435 327.986 199.46 329.348Z" fill="#FE733E"/>
<path d="M186.674 336.061C187.256 336.379 187.742 336.847 188.084 337.415C188.426 337.983 188.61 338.632 188.619 339.296C188.653 339.592 188.616 339.893 188.51 340.172C188.404 340.451 188.233 340.701 188.011 340.901L202.599 332.558L200.168 327.694L185.58 336.085C185.747 335.994 185.934 335.944 186.124 335.94C186.315 335.935 186.503 335.977 186.674 336.061Z" fill="#FE733E"/>
<path d="M228.784 312.444C228.793 313.107 228.977 313.756 229.319 314.324C229.661 314.893 230.147 315.36 230.729 315.679C231.774 316.117 232.577 315.338 232.552 313.952C232.536 313.29 232.348 312.644 232.007 312.077C231.666 311.51 231.184 311.041 230.607 310.717C229.562 310.303 228.759 311.082 228.784 312.444Z" fill="#FE733E"/>
<path d="M215.996 319.157C216.578 319.476 217.064 319.943 217.406 320.511C217.748 321.08 217.933 321.729 217.941 322.392C217.975 322.689 217.938 322.989 217.832 323.268C217.726 323.548 217.556 323.797 217.334 323.997L231.921 315.679L229.49 310.814L214.902 319.206C215.068 319.111 215.253 319.057 215.443 319.048C215.634 319.04 215.823 319.077 215.996 319.157Z" fill="#FE733E"/>
<path d="M258.69 295.102C258.707 295.767 258.895 296.416 259.235 296.987C259.576 297.558 260.058 298.031 260.635 298.362C261.68 298.775 262.483 297.997 262.458 296.61C262.447 295.948 262.261 295.3 261.92 294.732C261.578 294.164 261.093 293.696 260.513 293.376C259.468 292.962 258.666 293.74 258.69 295.102Z" fill="#FE733E"/>
<path d="M245.901 301.815C246.484 302.132 246.972 302.599 247.314 303.168C247.656 303.736 247.84 304.386 247.846 305.05C247.88 305.347 247.843 305.647 247.737 305.926C247.631 306.206 247.46 306.456 247.238 306.655L261.705 298.337L259.273 293.473L244.686 301.864C244.863 301.742 245.071 301.673 245.286 301.664C245.501 301.656 245.715 301.708 245.901 301.815Z" fill="#FE733E"/>
<path d="M288.107 278.198C288.122 278.863 288.309 279.513 288.65 280.085C288.991 280.656 289.474 281.129 290.052 281.457C291.098 281.871 291.9 281.093 291.876 279.731C291.866 279.064 291.682 278.412 291.34 277.84C290.999 277.268 290.513 276.796 289.931 276.471C288.788 276.058 288.107 276.836 288.107 278.198Z" fill="#FE733E"/>
<path d="M275.22 284.911C275.799 285.232 276.284 285.7 276.626 286.268C276.967 286.835 277.153 287.483 277.165 288.146C277.199 288.443 277.161 288.743 277.055 289.023C276.95 289.302 276.779 289.552 276.557 289.751L291.023 281.433L288.592 276.569L274.004 284.96C274.181 284.838 274.39 284.769 274.605 284.76C274.82 284.752 275.033 284.804 275.22 284.911Z" fill="#FE733E"/>
<path d="M316.963 261.465C316.98 262.126 317.167 262.772 317.508 263.339C317.849 263.907 318.332 264.375 318.908 264.7C319.954 265.113 320.756 264.335 320.732 262.973C320.723 262.31 320.538 261.661 320.197 261.092C319.855 260.524 319.368 260.057 318.787 259.738C317.741 259.324 316.939 260.078 316.963 261.465Z" fill="#FE733E"/>
<path d="M304.178 268.153C304.761 268.476 305.249 268.947 305.591 269.52C305.932 270.093 306.116 270.746 306.123 271.412C306.157 271.709 306.12 272.01 306.014 272.289C305.908 272.568 305.737 272.818 305.515 273.018L320.103 264.675L317.672 259.811L303.084 268.226C303.246 268.123 303.431 268.063 303.622 268.05C303.813 268.037 304.004 268.073 304.178 268.153Z" fill="#FE733E"/>
<path d="M346.288 244.561C346.304 245.222 346.492 245.868 346.833 246.435C347.174 247.002 347.656 247.471 348.233 247.795C349.278 248.209 350.08 247.431 350.056 246.069C350.045 245.406 349.859 244.758 349.518 244.19C349.176 243.622 348.691 243.154 348.111 242.834C347.066 242.42 346.263 243.174 346.288 244.561Z" fill="#FE733E"/>
<path d="M333.501 251.249C334.084 251.572 334.572 252.043 334.913 252.616C335.255 253.189 335.439 253.842 335.446 254.508C335.48 254.805 335.442 255.106 335.337 255.385C335.231 255.664 335.06 255.914 334.838 256.114L349.304 247.771L346.873 242.907L332.285 251.298C332.463 251.176 332.671 251.107 332.886 251.098C333.101 251.09 333.314 251.142 333.501 251.249Z" fill="#FE733E"/>
<path d="M0 279.366V292.5L221.514 419V405.842L0 279.366Z" fill="#BCBFC4"/>
<path d="M673.998 142.772V155.93L221.512 419V405.842L673.998 142.772Z" fill="#AEB1B5"/>
<path d="M297.249 236.778C295.111 238.382 292.439 239.105 289.785 238.796C284.423 238.029 278.967 238.26 273.689 239.477C276.675 237.572 279.964 236.19 283.415 235.391C288.071 234.793 292.803 235.267 297.249 236.778Z" fill="#A6EEFF"/>
<path d="M318.522 240.888C318.522 240.888 311.569 237.896 306.803 240.888C304.577 242.51 301.975 243.539 299.242 243.88C299.242 243.88 304.81 245.461 308.189 243.685C311.5 242.314 314.972 241.374 318.522 240.888Z" fill="#A6EEFF"/>
<path d="M171.938 324.654C171.938 324.654 164.985 321.662 160.195 324.654C157.978 326.276 155.384 327.306 152.658 327.645C152.658 327.645 158.226 329.226 161.605 327.426C164.919 326.071 168.391 325.14 171.938 324.654Z" fill="#A6EEFF"/>
<path d="M391.047 188.838C388.917 190.439 386.254 191.162 383.608 190.857C378.238 190.089 372.774 190.32 367.488 191.538C370.432 189.619 373.679 188.213 377.092 187.379C381.794 186.785 386.57 187.284 391.047 188.838Z" fill="#A6EEFF"/>
<path d="M471.399 130.757C469.263 132.344 466.603 133.058 463.959 132.751C458.589 131.997 453.127 132.228 447.84 133.432C450.826 131.526 454.114 130.145 457.565 129.346C462.223 128.748 466.957 129.231 471.399 130.757Z" fill="#A6EEFF"/>
<path d="M346.093 218.608C346.093 218.608 339.139 215.641 334.374 218.608C332.147 220.23 329.545 221.259 326.812 221.6C326.812 221.6 332.38 223.205 335.76 221.406C339.07 220.034 342.543 219.094 346.093 218.608Z" fill="#A6EEFF"/>
<path d="M394.571 175.607C392.425 174.996 390.152 174.996 388.006 175.607C385.876 176.213 383.789 176.961 381.758 177.844C383.859 178.287 386.013 178.418 388.152 178.234C390.422 177.718 392.59 176.83 394.571 175.607Z" fill="#A6EEFF"/>
<path opacity="0.5" d="M254.211 204.721C252.098 206.361 249.432 207.119 246.772 206.837C241.402 206.07 235.938 206.301 230.652 207.518C233.601 205.625 236.848 204.243 240.256 203.432C244.945 202.783 249.72 203.224 254.211 204.721Z" fill="white"/>
<path d="M186.284 208.077C184.15 209.671 181.49 210.393 178.844 210.096C173.476 209.328 168.013 209.551 162.725 210.753C165.673 208.86 168.92 207.478 172.328 206.667C177.026 206.05 181.804 206.533 186.284 208.077Z" fill="#A6EEFF"/>
<path d="M132.772 255.481C130.642 257.082 127.979 257.805 125.332 257.5C119.963 256.732 114.498 256.963 109.213 258.181C112.199 256.275 115.488 254.893 118.938 254.095C123.595 253.496 128.327 253.97 132.772 255.481Z" fill="#A6EEFF"/>
<path d="M182.029 249.985C182.029 249.985 175.076 246.993 170.286 249.985C168.069 251.636 165.465 252.691 162.725 253.049C162.725 253.049 168.317 254.63 171.696 252.855C175.003 251.459 178.476 250.494 182.029 249.985Z" fill="#A6EEFF"/>
<path d="M107.585 280.412C107.585 280.412 100.631 277.42 95.866 280.412C93.6394 282.033 91.0376 283.063 88.3047 283.403C88.3047 283.403 93.8723 284.984 97.2518 283.184C100.566 281.829 104.038 280.898 107.585 280.412Z" fill="#A6EEFF"/>
<path opacity="0.5" d="M437.143 99.4295C435.006 101.034 432.334 101.757 429.679 101.448C424.318 100.681 418.861 100.912 413.584 102.129C416.967 99.7344 420.9 98.2315 425.018 97.7596C429.136 97.2877 433.306 97.8621 437.143 99.4295Z" fill="white"/>
<path d="M369.213 102.786C367.069 104.377 364.403 105.098 361.749 104.805C356.389 104.036 350.934 104.259 345.654 105.462C349.044 103.079 352.977 101.585 357.093 101.118C361.209 100.651 365.376 101.224 369.213 102.786Z" fill="#A6EEFF"/>
<path d="M315.677 150.166C313.544 151.758 310.881 152.472 308.238 152.16C302.877 151.393 297.42 151.624 292.143 152.841C295.081 150.946 298.32 149.564 301.722 148.755C306.42 148.136 311.198 148.619 315.677 150.166Z" fill="#A6EEFF"/>
<path d="M364.934 144.693C364.934 144.693 357.981 141.702 353.216 144.693C350.989 146.315 348.387 147.344 345.654 147.685C345.654 147.685 351.222 149.266 354.601 147.49C357.912 146.119 361.385 145.179 364.934 144.693Z" fill="#A6EEFF"/>
<path d="M272.034 185.506C269.888 184.895 267.615 184.895 265.469 185.506C263.34 186.126 261.253 186.882 259.221 187.768C261.322 188.209 263.477 188.332 265.615 188.133C267.888 187.628 270.059 186.74 272.034 185.506Z" fill="#A6EEFF"/>
<path d="M461.603 68.8808C459.457 68.2697 457.184 68.2697 455.038 68.8808C452.901 69.4897 450.806 70.2372 448.766 71.1185C450.875 71.5595 453.037 71.6906 455.184 71.5076C457.454 70.9916 459.622 70.1041 461.603 68.8808Z" fill="#A6EEFF"/>
<path opacity="0.5" d="M385.505 283.111C383.372 284.705 380.712 285.427 378.066 285.13C372.706 284.361 367.25 284.584 361.971 285.787C365.355 283.404 369.284 281.911 373.397 281.443C377.509 280.976 381.673 281.549 385.505 283.111Z" fill="white"/>
<path d="M317.572 286.468C315.438 288.06 312.776 288.774 310.132 288.462C304.771 287.695 299.314 287.926 294.037 289.143C296.976 287.248 300.215 285.867 303.616 285.057C308.315 284.438 313.092 284.921 317.572 286.468Z" fill="#A6EEFF"/>
<path d="M313.317 328.448C313.317 328.448 306.364 325.457 301.598 328.448C299.372 330.07 296.77 331.099 294.037 331.44C294.037 331.44 299.605 333.021 302.984 331.221C306.298 329.866 309.77 328.934 313.317 328.448Z" fill="#A6EEFF"/>
<path d="M231.067 360.505C231.067 360.505 224.114 357.513 219.348 360.505C217.124 362.13 214.521 363.16 211.787 363.496C211.787 363.496 217.355 365.077 220.734 363.278C224.048 361.922 227.52 360.991 231.067 360.505Z" fill="#A6EEFF"/>
<path d="M220.421 369.188C218.276 368.577 216.002 368.577 213.857 369.188C211.719 369.797 209.624 370.544 207.584 371.426C209.693 371.867 211.856 371.998 214.003 371.815C216.272 371.299 218.441 370.411 220.421 369.188Z" fill="#A6EEFF"/>
<path d="M265.132 319.181C262.987 318.57 260.713 318.57 258.568 319.181C256.43 319.799 254.335 320.555 252.295 321.443C254.404 321.885 256.568 322.008 258.714 321.808C260.985 321.298 263.155 320.41 265.132 319.181Z" fill="#A6EEFF"/>
<path opacity="0.5" d="M568.434 177.82C566.29 179.411 563.624 180.133 560.97 179.839C555.61 179.07 550.155 179.293 544.875 180.496C547.827 178.614 551.073 177.241 554.479 176.434C559.175 175.816 563.951 176.291 568.434 177.82Z" fill="white"/>
<path opacity="0.5" d="M579.861 141.312C577.728 142.907 575.067 143.628 572.421 143.331C567.061 142.563 561.606 142.785 556.326 143.988C559.711 141.605 563.64 140.112 567.752 139.644C571.864 139.177 576.028 139.75 579.861 141.312Z" fill="white"/>
<path d="M446.993 228.532C444.849 230.123 442.182 230.845 439.529 230.551C434.169 229.782 428.713 230.005 423.434 231.208C426.423 229.314 429.711 227.94 433.159 227.146C437.815 226.547 442.547 227.021 446.993 228.532Z" fill="#A6EEFF"/>
<path d="M496.225 223.084C496.225 223.084 489.272 220.092 484.507 223.084C482.282 224.709 479.679 225.739 476.945 226.076C476.945 226.076 482.513 227.657 485.892 225.857C489.207 224.502 492.678 223.57 496.225 223.084Z" fill="#A6EEFF"/>
<path d="M413.998 255.214C413.998 255.214 407.044 252.222 402.255 255.214C400.03 256.839 397.427 257.869 394.693 258.205C394.693 258.205 400.261 259.786 403.64 257.986C406.964 256.633 410.443 255.701 413.998 255.214Z" fill="#A6EEFF"/>
<path d="M448.036 213.914C445.893 213.289 443.615 213.289 441.472 213.914C439.335 214.523 437.239 215.271 435.199 216.152C437.309 216.593 439.472 216.716 441.618 216.517C443.888 216.016 446.058 215.137 448.036 213.914Z" fill="#A6EEFF"/>
<path d="M592.891 147.271C590.748 146.644 588.47 146.644 586.327 147.271C584.196 147.878 582.109 148.625 580.078 149.509C582.179 149.952 584.333 150.083 586.472 149.898C588.742 149.382 590.911 148.495 592.891 147.271Z" fill="#A6EEFF"/>
<path d="M635.027 89.2872V106.434L649.712 114.923V97.7757L635.027 89.2872Z" fill="#BCBFC4"/>
<path d="M657.931 93.0327L649.713 97.7756V114.923L657.931 110.18V93.0327Z" fill="#AEB1B5"/>
<path d="M645.189 102.591L628.486 92.9596L647.766 81.8201L664.469 91.476L645.189 102.591Z" fill="#1397E8"/>
<path d="M628.486 96.1946L645.189 105.826V102.591L628.486 92.9597V96.1946Z" fill="#1582E5"/>
<path d="M664.468 94.687L645.188 105.827V102.592L664.468 91.4764V94.687Z" fill="#1765E2"/>
<path d="M565.271 48.8636V66.0352L579.956 74.5237V57.3522L565.271 48.8636Z" fill="#BCBFC4"/>
<path d="M588.173 52.6091L579.955 57.352V74.5235L588.173 69.7564V52.6091Z" fill="#AEB1B5"/>
<path d="M575.437 62.1921L558.734 52.5362L578.014 41.4209L594.693 51.0526L575.437 62.1921Z" fill="#1397E8"/>
<path d="M558.734 55.7713L575.437 65.4029V62.1923L558.734 52.5364V55.7713Z" fill="#1582E5"/>
<path d="M594.691 54.2873L575.436 65.4026V62.1921L594.691 51.0525V54.2873Z" fill="#1765E2"/>
<path d="M494.719 7.46716V24.6143L509.404 33.1029V15.9556L494.719 7.46716Z" fill="#BCBFC4"/>
<path d="M517.62 11.2129L509.402 15.9557V33.1029L517.62 28.3601V11.2129Z" fill="#AEB1B5"/>
<path d="M504.877 20.7712L488.174 11.1396L507.454 0L524.157 9.65594L504.877 20.7712Z" fill="#1397E8"/>
<path d="M488.174 14.3746L504.877 24.0062V20.7714L488.174 11.1398V14.3746Z" fill="#1582E5"/>
<path d="M524.159 12.8666L504.879 24.0061V20.7713L524.159 9.65601V12.8666Z" fill="#1765E2"/>
<path d="M72.1123 214.134C71.1465 213.454 70.0143 213.05 68.8367 212.964C67.659 212.879 66.4802 213.115 65.4263 213.647C64.2144 214.567 63.2616 215.786 62.6608 217.184C62.06 218.582 61.8317 220.112 61.9982 221.625V239.794H64.4295V222.354C64.2847 221.214 64.4319 220.056 64.8571 218.988C65.2824 217.92 65.9718 216.978 66.8608 216.25C67.6379 215.887 68.497 215.737 69.351 215.814C70.2049 215.891 71.0234 216.192 71.7233 216.687C74.1234 218.41 76.0863 220.671 77.4544 223.29C78.8225 225.909 79.5576 228.813 79.6007 231.767V285.982H82.032V232.473C81.7402 225.37 77.4125 217.125 72.1123 214.134Z" fill="#BCBFC4"/>
<path d="M64.2374 239.769C64.2374 240.11 63.7027 240.401 63.0708 240.401C62.439 240.401 61.9043 240.11 61.9043 239.769C61.9043 239.429 62.4147 239.137 63.0708 239.137C63.727 239.137 64.2374 239.429 64.2374 239.769Z" fill="#BCBFC4"/>
<path d="M81.7393 285.981C81.7393 286.346 81.229 286.614 80.5728 286.614C79.9166 286.614 79.4062 286.346 79.4062 285.981C79.4062 285.617 79.9409 285.349 80.5728 285.349C81.2047 285.349 81.7393 285.641 81.7393 285.981Z" fill="#1397E8"/>
<path d="M90.6411 203.432C89.6753 202.752 88.543 202.348 87.3654 202.262C86.1878 202.176 85.009 202.412 83.9551 202.945C82.7195 203.865 81.7447 205.092 81.1266 206.503C80.5085 207.915 80.2683 209.463 80.4297 210.996V229.164H82.861V211.701C82.7135 210.564 82.8595 209.408 83.2851 208.344C83.7107 207.28 84.4017 206.342 85.2923 205.621C86.0627 205.237 86.9239 205.072 87.7815 205.145C88.6391 205.218 89.4602 205.526 90.1548 206.034C92.5491 207.76 94.5062 210.023 95.8698 212.642C97.2334 215.26 97.9656 218.162 98.0079 221.114V275.328H100.439V221.819C100.293 214.766 96.0385 206.496 90.6411 203.432Z" fill="#BCBFC4"/>
<path d="M100.287 275.328C100.287 275.669 99.7524 275.961 99.1205 275.961C98.4887 275.961 97.9297 275.669 97.9297 275.328C97.9297 274.988 98.4644 274.696 99.1205 274.696C99.7767 274.696 100.287 274.939 100.287 275.328Z" fill="#1397E8"/>
<path d="M82.7831 229.213C82.7831 229.554 82.2485 229.845 81.5923 229.845C80.9361 229.845 80.4258 229.554 80.4258 229.213C80.4258 228.873 80.9604 228.581 81.5923 228.581C82.2242 228.581 82.7831 228.873 82.7831 229.213Z" fill="#BCBFC4"/>
<path d="M99.509 231.767C99.4996 231.491 99.4212 231.222 99.2811 230.984C99.1409 230.746 98.9434 230.547 98.7067 230.405C98.5735 230.354 98.4265 230.354 98.2934 230.405L81.7363 239.915V242.493L99.2659 232.399C99.4262 232.228 99.5134 232.001 99.509 231.767Z" fill="#989B9E"/>
<path d="M99.509 244.731C99.5 244.458 99.4216 244.192 99.2812 243.958C99.1408 243.724 98.9431 243.529 98.7067 243.393C98.642 243.363 98.5715 243.347 98.5 243.347C98.4286 243.347 98.358 243.363 98.2934 243.393L81.7363 252.879V255.481L99.2659 245.363C99.3487 245.281 99.4132 245.182 99.4551 245.073C99.4971 244.964 99.5154 244.847 99.509 244.731Z" fill="#989B9E"/>
<path d="M99.509 256.405C99.5 256.133 99.4216 255.867 99.2812 255.633C99.1408 255.398 98.9431 255.204 98.7067 255.068C98.642 255.037 98.5715 255.022 98.5 255.022C98.4286 255.022 98.358 255.037 98.2934 255.068L81.7363 264.578V267.156L99.2659 257.062C99.352 256.977 99.4183 256.874 99.4604 256.761C99.5024 256.647 99.519 256.526 99.509 256.405Z" fill="#1587E5"/>
<path d="M99.509 269.345C99.5 269.072 99.4216 268.806 99.2812 268.572C99.1408 268.338 98.9431 268.144 98.7067 268.007C98.642 267.977 98.5715 267.961 98.5 267.961C98.4286 267.961 98.358 267.977 98.2934 268.007L81.7363 277.517V280.096L99.2659 270.075C99.3625 269.982 99.435 269.867 99.4774 269.74C99.5197 269.613 99.5306 269.477 99.509 269.345Z" fill="#1587E5"/>
<path d="M80.5733 260.346C79.9411 260.346 79.4062 260.078 79.4062 259.713V285.908H81.8375V259.786C81.7403 260.151 81.2297 260.346 80.5733 260.346Z" fill="#1397E8"/>
<path d="M99.121 249.692C98.4646 249.692 97.9297 249.425 97.9297 249.06V275.328H100.361V249.06C100.288 249.425 99.7532 249.692 99.121 249.692Z" fill="#1397E8"/>
<path d="M374.342 38.4295C373.377 37.75 372.244 37.3458 371.067 37.2601C369.889 37.1744 368.71 37.4105 367.656 37.943C366.415 38.8584 365.436 40.0839 364.818 41.4968C364.199 42.9097 363.962 44.4605 364.131 45.9937V64.1624H366.562V46.7234C366.415 45.583 366.561 44.4238 366.987 43.3556C367.412 42.2873 368.103 41.3453 368.994 40.6185C369.767 40.2408 370.629 40.0819 371.486 40.159C372.343 40.2362 373.163 40.5465 373.856 41.0563C376.256 42.7788 378.219 45.0403 379.587 47.6592C380.955 50.2781 381.69 53.1815 381.733 56.1361V110.326H384.165V56.8171C383.97 49.7394 379.643 41.4455 374.342 38.4295Z" fill="#BCBFC4"/>
<path d="M366.464 64.1382C366.464 64.4787 365.929 64.7706 365.297 64.7706C364.666 64.7706 364.131 64.4787 364.131 64.1382C364.131 63.7977 364.641 63.5059 365.297 63.5059C365.954 63.5059 366.464 63.7977 366.464 64.1382Z" fill="#BCBFC4"/>
<path d="M383.974 110.35C383.974 110.691 383.463 110.983 382.807 110.983C382.151 110.983 381.641 110.691 381.641 110.35C381.641 110.01 382.175 109.718 382.807 109.718C383.439 109.718 383.974 110.01 383.974 110.35Z" fill="#1397E8"/>
<path d="M392.868 27.8004C391.902 27.1209 390.77 26.7166 389.592 26.6309C388.414 26.5453 387.236 26.7813 386.182 27.3139C384.946 28.2343 383.971 29.4605 383.353 30.8721C382.735 32.2837 382.495 33.832 382.656 35.3646V53.6063H385.088V36.0942C384.952 34.9429 385.116 33.7761 385.563 32.7066C386.01 31.6371 386.726 30.7012 387.64 29.9894C388.418 29.627 389.277 29.4766 390.131 29.5535C390.985 29.6304 391.803 29.9318 392.503 30.4271C394.897 32.1536 396.854 34.4165 398.218 37.0349C399.582 39.6534 400.314 42.5548 400.356 45.507V99.8186H402.787V46.3096C402.52 39.0129 398.192 30.865 392.868 27.8004Z" fill="#BCBFC4"/>
<path d="M402.521 99.8187C402.521 100.159 401.987 100.451 401.355 100.451C400.723 100.451 400.164 100.159 400.164 99.8187C400.164 99.4782 400.699 99.1863 401.355 99.1863C402.011 99.1863 402.521 99.3322 402.521 99.8187Z" fill="#1397E8"/>
<path d="M384.993 53.6064C384.993 53.9469 384.483 54.2388 383.827 54.2388C383.171 54.2388 382.66 53.9469 382.66 53.6064C382.66 53.2659 383.195 52.974 383.827 52.974C384.459 52.974 384.993 53.2172 384.993 53.6064Z" fill="#BCBFC4"/>
<path d="M401.745 56.0386C401.736 55.7658 401.658 55.4998 401.518 55.2657C401.377 55.0317 401.179 54.8373 400.943 54.701C400.878 54.6706 400.808 54.6548 400.736 54.6548C400.665 54.6548 400.594 54.6706 400.53 54.701L383.973 64.2109V66.7891L401.502 56.6711C401.585 56.5888 401.65 56.4899 401.691 56.3809C401.733 56.2719 401.752 56.1553 401.745 56.0386Z" fill="#989B9E"/>
<path d="M401.745 69.0997C401.736 68.8269 401.658 68.5608 401.518 68.3268C401.377 68.0927 401.179 67.8983 400.943 67.762C400.878 67.7316 400.808 67.7158 400.736 67.7158C400.665 67.7158 400.594 67.7316 400.53 67.762L383.973 77.272V79.8502L401.502 69.7564C401.588 69.6714 401.655 69.5685 401.697 69.4551C401.739 69.3416 401.755 69.2203 401.745 69.0997Z" fill="#989B9E"/>
<path d="M401.745 80.7745C401.736 80.5017 401.658 80.2356 401.518 80.0015C401.377 79.7674 401.179 79.5731 400.943 79.4367C400.878 79.4063 400.808 79.3906 400.736 79.3906C400.665 79.3906 400.594 79.4063 400.53 79.4367L383.973 88.9467V91.5249L401.502 81.4312C401.587 81.3452 401.653 81.2422 401.694 81.129C401.736 81.0158 401.754 80.8949 401.745 80.7745Z" fill="#1587E5"/>
<path d="M401.745 93.7137C401.739 93.4404 401.661 93.1734 401.521 92.939C401.38 92.7045 401.181 92.5106 400.943 92.3761C400.878 92.3457 400.808 92.33 400.736 92.33C400.665 92.33 400.594 92.3457 400.53 92.3761L383.973 101.886V104.464L401.502 94.3705C401.587 94.2845 401.653 94.1815 401.694 94.0683C401.736 93.9551 401.754 93.8342 401.745 93.7137Z" fill="#1587E5"/>
<path d="M382.925 84.7877C382.293 84.7877 381.758 84.4958 381.758 84.1553V110.35H384.189V84.1553C383.97 84.4958 383.46 84.7877 382.925 84.7877Z" fill="#1397E8"/>
<path d="M401.355 74.0615C400.699 74.0615 400.164 73.7696 400.164 73.4291V99.8188H402.595V73.5507C402.522 73.7696 401.988 74.0615 401.355 74.0615Z" fill="#1397E8"/>
<path d="M211.254 66.4741C210.305 62.5582 204.543 60.6367 194.089 60.6854C190.539 60.6854 178.31 61.7556 183.975 54.5805C186.6 51.2727 202.817 43.1976 196.86 37.1414C193.967 34.1984 187.257 35.4145 183.683 36.0226C179.501 36.7523 168.487 40.6925 167.345 40.6438C158.13 40.2547 163.771 36.9712 164.208 34.4903C165.764 25.8072 149.402 30.9392 146.192 32.0581C134.293 35.8247 123.527 42.5143 114.878 51.5159C110.915 55.6263 105.712 61.2448 104.107 66.7903C102.624 71.9709 105.979 75.9841 109.31 79.5838C112.231 82.6965 115.494 85.4705 119.035 87.8534C123.314 96.8039 135.009 99.8199 144.393 99.0173C160.002 97.6795 176.122 90.918 190.588 84.9833C196.325 82.4295 213.515 75.9598 211.254 66.4741Z" fill="#2EBFFF"/>
<path d="M184.001 65.9636C181.035 63.5314 177.461 65.4286 174.763 64.0422C167.469 60.3209 179.479 52.5377 181.449 49.8866C184.439 45.9464 182.98 43.6115 178.264 44.3411C173.547 45.0708 167.08 49.5947 162.412 48.2813C159.98 47.576 160.369 45.8491 158.376 44.9249C155.361 43.3926 151.374 48.1597 148.894 48.1111C143.642 48.1111 153.756 36.6553 147.8 37.8714C138.284 39.6372 129.532 44.261 122.709 51.127C119.208 54.7267 113.786 60.4911 116.582 65.4285C116.524 65.5691 116.483 65.7161 116.46 65.8664C115.755 73.4063 121.469 82.6974 127.985 86.4187C135.57 90.748 145.976 90.9426 154.316 89.5319C163.039 88.1145 171.237 84.4328 178.093 78.8544C181.157 76.2763 188.913 70.0498 184.001 65.9636Z" fill="#19A8F7"/>
<path d="M85.0007 81.627C85.0007 81.627 77.0018 79.3407 76.1509 64.9906C75.5445 58.9158 74.4633 52.8979 72.9173 46.9921C71.5314 40.1575 75.7376 27.1694 76.2967 20.2376C76.7587 14.3272 73.8655 10.1438 76.2967 3.91732C78.728 -2.30918 83.469 -1.21468 84.2714 7.9305C84.7819 13.7435 82.5695 18.4621 83.5906 22.232C85.1842 30.1055 85.8775 38.1348 85.6572 46.1651C85.5113 52.6835 92.4891 64.3582 92.4891 64.3582L85.0007 81.627Z" fill="#FFC5B3"/>
<path d="M132.357 97.8499C132.357 97.8499 136.126 90.1398 141.596 89.4831C144.348 89.1256 146.965 88.0799 149.206 86.4428C150.714 81.9675 150.009 76.2518 143.347 71.363C127.398 59.664 116.141 60.3936 105.419 61.6341C100.775 62.1448 95.864 58.6181 89.5426 59.5667C83.7319 60.4666 82.03 64.1393 82.2488 71.4603C82.419 79.9487 84.6801 82.2837 91.9739 88.267C91.9739 88.267 104.13 90.6992 108.336 93.326C112.543 95.9528 117.502 103.444 123.556 105.025C133.038 107.457 133.986 103.566 139.214 97.9959C135.299 98.0202 132.357 97.8499 132.357 97.8499Z" fill="#FFC5B3"/>
<path d="M144.495 93.1073C146.696 91.4058 148.339 89.085 149.212 86.443C146.971 88.0801 144.354 89.1258 141.602 89.4833C136.132 90.14 132.363 97.8501 132.363 97.8501C132.363 97.8501 135.305 98.0204 139.049 97.8501C140.701 96.0909 142.526 94.502 144.495 93.1073Z" fill="#FFA08D"/>
<path d="M99.8047 87.5859L113.347 97.8013C113.347 97.8013 121.54 88.0724 117.772 78.5138C117.001 76.6982 115.762 75.1201 114.181 73.9406C112.601 72.7612 110.735 72.0227 108.776 71.8008L99.8047 87.5859Z" fill="#FFA08D"/>
<path d="M89.5444 78.5139C89.5444 79.3166 89.5444 80.0705 89.5444 80.6786C89.0581 89.7022 94.8446 98.9446 99.2695 97.7042C104.598 96.0719 109.125 92.5066 111.961 87.7077C112.499 86.6237 112.978 85.5114 113.395 84.3756C112.034 84.254 110.721 84.0107 109.724 83.9378C104.278 83.4756 94.5528 82.7946 89.5444 78.5139Z" fill="#FFC5B3"/>
<path d="M112.061 69.1499C108.439 65.1124 95.9905 62.0478 90.7146 71.8983C89.9043 74.008 89.508 76.2542 89.5476 78.514C93.3161 83.0622 104.695 85.8107 113.35 84.4C115.344 79.0977 115.976 73.5279 112.061 69.1499Z" fill="#0F0F0F"/>
<path d="M118.188 102.106C118.188 102.106 123.293 108.26 136.738 106.971C150.183 105.682 154.511 108.6 166.448 111.252C178.386 113.903 187.43 109.768 199.271 106.606C211.111 103.444 220.617 100.234 220.472 96.342C220.326 92.4504 213.81 90.3587 207.95 92.0126C202.091 93.6666 197.034 97.6068 195.794 97.7527C192.585 98.0932 176.514 94.6881 166.837 95.8312C159.253 96.3607 151.638 95.4023 144.421 93.0098C139.899 90.9668 126.843 87.2698 126.843 87.2698L118.188 102.106Z" fill="#FFC5B3"/>
<path d="M107.172 51.2971C107.172 51.2971 107.439 40.571 113.347 37.6036C119.255 34.6363 116.313 39.2089 113.347 42.8573C110.381 46.5056 107.172 51.2971 107.172 51.2971Z" fill="#2EBFFF"/>
<path d="M103.72 45.1193C103.72 45.1193 99.8061 37.6038 102.237 32.9582C104.669 28.3126 109.531 30.0152 107.1 35.3904C104.669 40.7657 103.72 45.1193 103.72 45.1193Z" fill="#2EBFFF"/>
<path d="M111.304 80.8244C109.602 80.8244 106.733 80.8244 104.691 80.6785C102.528 80.4898 100.392 80.0657 98.3212 79.4137C98.1754 79.9001 98.3213 80.2893 98.0781 80.8001C100.162 81.505 102.313 81.994 104.497 82.2594C106.599 82.4274 108.709 82.4842 110.818 82.4297C111.013 81.8216 111.11 81.1649 111.304 80.8244Z" fill="white"/>
</svg>
