<svg width="45" height="44" viewBox="0 0 45 44" fill="none" xmlns="http://www.w3.org/2000/svg">
<path d="M22.0108 0.333008C12.9635 0.333008 10.3175 0.342341 9.80315 0.385008C7.94649 0.539341 6.79116 0.831675 5.53249 1.45834C4.56249 1.94001 3.79749 2.49834 3.04249 3.28101C1.66749 4.70834 0.834156 6.46434 0.532489 8.55168C0.385823 9.56501 0.343156 9.77168 0.334489 14.9477C0.331156 16.673 0.334489 18.9437 0.334489 21.9893C0.334489 31.0293 0.344489 33.6727 0.387823 34.186C0.537823 35.9927 0.821156 37.1293 1.42116 38.3727C2.56782 40.7527 4.75782 42.5393 7.33782 43.206C8.23116 43.436 9.21782 43.5627 10.4845 43.6227C11.0212 43.646 16.4912 43.6627 21.9645 43.6627C27.4378 43.6627 32.9112 43.656 33.4345 43.6293C34.9012 43.5603 35.7528 43.446 36.6945 43.2027C39.2912 42.5327 41.4412 40.7727 42.6112 38.3593C43.1995 37.146 43.4978 35.966 43.6328 34.2537C43.6622 33.8803 43.6745 27.928 43.6745 21.9837C43.6745 16.0383 43.6612 10.097 43.6318 9.72368C43.4952 7.98368 43.1968 6.81368 42.5895 5.57701C42.0912 4.56468 41.5378 3.80867 40.7345 3.03567C39.3008 1.66634 37.5475 0.833008 35.4582 0.531675C34.4458 0.385341 34.2442 0.342008 29.0642 0.333008H22.0108Z" fill="url(#paint0_radial_484_6447)"/>
<path d="M22.0108 0.333008C12.9635 0.333008 10.3175 0.342341 9.80315 0.385008C7.94649 0.539341 6.79116 0.831675 5.53249 1.45834C4.56249 1.94001 3.79749 2.49834 3.04249 3.28101C1.66749 4.70834 0.834156 6.46434 0.532489 8.55168C0.385823 9.56501 0.343156 9.77168 0.334489 14.9477C0.331156 16.673 0.334489 18.9437 0.334489 21.9893C0.334489 31.0293 0.344489 33.6727 0.387823 34.186C0.537823 35.9927 0.821156 37.1293 1.42116 38.3727C2.56782 40.7527 4.75782 42.5393 7.33782 43.206C8.23116 43.436 9.21782 43.5627 10.4845 43.6227C11.0212 43.646 16.4912 43.6627 21.9645 43.6627C27.4378 43.6627 32.9112 43.656 33.4345 43.6293C34.9012 43.5603 35.7528 43.446 36.6945 43.2027C39.2912 42.5327 41.4412 40.7727 42.6112 38.3593C43.1995 37.146 43.4978 35.966 43.6328 34.2537C43.6622 33.8803 43.6745 27.928 43.6745 21.9837C43.6745 16.0383 43.6612 10.097 43.6318 9.72368C43.4952 7.98368 43.1968 6.81368 42.5895 5.57701C42.0912 4.56468 41.5378 3.80867 40.7345 3.03567C39.3008 1.66634 37.5475 0.833008 35.4582 0.531675C34.4458 0.385341 34.2442 0.342008 29.0642 0.333008H22.0108Z" fill="url(#paint1_radial_484_6447)"/>
<path d="M22.0012 6C17.6559 6 17.1105 6.019 15.4039 6.09667C13.7005 6.17467 12.5379 6.44433 11.5205 6.84C10.4682 7.24867 9.57555 7.79533 8.68621 8.685C7.79621 9.57433 7.24954 10.467 6.83954 11.519C6.44288 12.5367 6.17288 13.6997 6.09621 15.4023C6.01988 17.109 5.99988 17.6547 5.99988 22C5.99988 26.3453 6.01921 26.889 6.09654 28.5957C6.17488 30.299 6.44454 31.4617 6.83988 32.479C7.24888 33.5313 7.79554 34.424 8.68521 35.3133C9.57421 36.2033 10.4669 36.7513 11.5185 37.16C12.5365 37.5557 13.6995 37.8253 15.4025 37.9033C17.1092 37.981 17.6542 38 21.9992 38C26.3449 38 26.8885 37.981 28.5952 37.9033C30.2985 37.8253 31.4625 37.5557 32.4805 37.16C33.5325 36.7513 34.4239 36.2033 35.3129 35.3133C36.2029 34.424 36.7495 33.5313 37.1595 32.4793C37.5529 31.4617 37.8229 30.2987 37.9029 28.596C37.9795 26.8893 37.9995 26.3453 37.9995 22C37.9995 17.6547 37.9795 17.1093 37.9029 15.4027C37.8229 13.6993 37.5529 12.5367 37.1595 11.5193C36.7495 10.467 36.2029 9.57433 35.3129 8.685C34.4229 7.795 33.5329 7.24833 32.4795 6.84C31.4595 6.44433 30.2962 6.17467 28.5929 6.09667C26.8862 6.019 26.3429 6 21.9962 6H22.0012ZM20.5659 8.88333C20.9919 8.88267 21.4672 8.88333 22.0012 8.88333C26.2732 8.88333 26.7795 8.89867 28.4665 8.97533C30.0265 9.04667 30.8732 9.30733 31.4372 9.52633C32.1839 9.81633 32.7162 10.163 33.2759 10.723C33.8359 11.283 34.1825 11.8163 34.4732 12.563C34.6922 13.1263 34.9532 13.973 35.0242 15.533C35.1009 17.2197 35.1175 17.7263 35.1175 21.9963C35.1175 26.2663 35.1009 26.773 35.0242 28.4597C34.9529 30.0197 34.6922 30.8663 34.4732 31.4297C34.1832 32.1763 33.8359 32.708 33.2759 33.2677C32.7159 33.8277 32.1842 34.1743 31.4372 34.4643C30.8739 34.6843 30.0265 34.9443 28.4665 35.0157C26.7799 35.0923 26.2732 35.109 22.0012 35.109C17.7289 35.109 17.2225 35.0923 15.5359 35.0157C13.9759 34.9437 13.1292 34.683 12.5649 34.464C11.8182 34.174 11.2849 33.8273 10.7249 33.2673C10.1649 32.7073 9.81821 32.1753 9.52754 31.4283C9.30855 30.865 9.04754 30.0183 8.97655 28.4583C8.89988 26.7717 8.88454 26.265 8.88454 21.9923C8.88454 17.7197 8.89988 17.2157 8.97655 15.529C9.04788 13.969 9.30855 13.1223 9.52754 12.5583C9.81755 11.8117 10.1649 11.2783 10.7249 10.7183C11.2849 10.1583 11.8182 9.81167 12.5649 9.521C13.1289 9.301 13.9759 9.041 15.5359 8.96933C17.0119 8.90267 17.5839 8.88267 20.5659 8.87933V8.88333ZM30.5419 11.54C29.4819 11.54 28.6219 12.399 28.6219 13.4593C28.6219 14.5193 29.4819 15.3793 30.5419 15.3793C31.6019 15.3793 32.4619 14.5193 32.4619 13.4593C32.4619 12.3993 31.6019 11.5393 30.5419 11.5393V11.54ZM22.0012 13.7833C17.4635 13.7833 13.7845 17.4623 13.7845 22C13.7845 26.5377 17.4635 30.215 22.0012 30.215C26.5389 30.215 30.2165 26.5377 30.2165 22C30.2165 17.4623 26.5385 13.7833 22.0009 13.7833H22.0012ZM22.0012 16.6667C24.9465 16.6667 27.3345 19.0543 27.3345 22C27.3345 24.9453 24.9465 27.3333 22.0012 27.3333C19.0555 27.3333 16.6679 24.9453 16.6679 22C16.6679 19.0543 19.0555 16.6667 22.0012 16.6667Z" fill="white"/>
<defs>
<radialGradient id="paint0_radial_484_6447" cx="0" cy="0" r="1" gradientUnits="userSpaceOnUse" gradientTransform="translate(11.8456 47) rotate(-90) scale(42.9429 39.9512)">
<stop stop-color="#FFDD55"/>
<stop offset="0.1" stop-color="#FFDD55"/>
<stop offset="0.5" stop-color="#FF543E"/>
<stop offset="1" stop-color="#C837AB"/>
</radialGradient>
<radialGradient id="paint1_radial_484_6447" cx="0" cy="0" r="1" gradientUnits="userSpaceOnUse" gradientTransform="translate(-6.92692 3.4544) rotate(78.6776) scale(19.1959 79.146)">
<stop stop-color="#3771C8"/>
<stop offset="0.128" stop-color="#3771C8"/>
<stop offset="1" stop-color="#6600FF" stop-opacity="0"/>
</radialGradient>
</defs>
</svg>
