<svg width="24" height="24" viewBox="0 0 24 24" fill="none" xmlns="http://www.w3.org/2000/svg">
<path d="M15.8995 13.0711C16.29 12.6805 16.9232 12.6805 17.3137 13.0711C17.7042 13.4616 17.7042 14.0948 17.3137 14.4853L14.4853 17.3137C14.0948 17.7042 13.4616 17.7042 13.0711 17.3137C12.6805 16.9232 12.6805 16.29 13.0711 15.8995L15.8995 13.0711Z" fill="#001940"/>
<path d="M13.7782 6.70711C14.1687 6.31658 14.8019 6.31658 15.1924 6.70711C15.5829 7.09763 15.5829 7.7308 15.1924 8.12132L8.12132 15.1924C7.7308 15.5829 7.09763 15.5829 6.70711 15.1924C6.31658 14.8019 6.31658 14.1687 6.70711 13.7782L13.7782 6.70711Z" fill="#001940"/>
</svg>
