<svg width="44" height="44" viewBox="0 0 44 44" fill="none" xmlns="http://www.w3.org/2000/svg">
<path fill-rule="evenodd" clip-rule="evenodd" d="M15.2533 0H28.7467C41.0667 0 44 2.93333 44 15.2533V28.7467C44 41.0667 41.0667 44 28.7467 44H15.2533C2.93333 44 0 41.0667 0 28.7467V15.2533C0 2.93333 2.93333 0 15.2533 0Z" fill="#2787F5"/>
<path fill-rule="evenodd" clip-rule="evenodd" d="M36.0327 15.1583C36.2366 14.4785 36.0327 13.979 35.0625 13.979H31.8542C31.0384 13.979 30.6623 14.4105 30.4583 14.8864C30.4583 14.8864 28.8268 18.8632 26.5155 21.4464C25.7677 22.1942 25.4278 22.4321 25.0199 22.4321C24.816 22.4321 24.5208 22.1942 24.5208 21.5145V15.1583C24.5208 14.3426 24.284 13.979 23.6042 13.979H18.5625C18.0527 13.979 17.7461 14.3576 17.7461 14.7165C17.7461 15.4898 18.9017 15.6681 19.0208 17.8435V22.5681C19.0208 23.604 18.8338 23.7918 18.4259 23.7918C17.3382 23.7918 14.6925 19.7972 13.1234 15.2263C12.8159 14.3379 12.5075 13.979 11.6875 13.979H8.47916C7.56249 13.979 7.37915 14.4105 7.37915 14.8864C7.37915 15.7361 8.46685 19.9509 12.4436 25.5253C15.0948 29.3321 18.8302 31.3957 22.2292 31.3957C24.2685 31.3957 24.5208 30.9373 24.5208 30.1479V27.2707C24.5208 26.354 24.714 26.1711 25.3598 26.1711C25.8357 26.1711 26.6514 26.409 28.5549 28.2444C30.7303 30.4198 31.0889 31.3957 32.3125 31.3957H35.5208C36.4375 31.3957 36.8958 30.9373 36.6314 30.0328C36.3421 29.1314 35.3035 27.8235 33.9253 26.273C33.1775 25.3893 32.0559 24.4376 31.7159 23.9617C31.2401 23.3499 31.3761 23.0779 31.7159 22.5341C31.7159 22.5341 35.6248 17.0278 36.0327 15.1583Z" fill="white"/>
</svg>
